<svg width="36" height="36" viewBox="0 0 36 36" fill="none" xmlns="http://www.w3.org/2000/svg">
<path d="M7.5 25.5H13.5C14.6935 25.5 15.8381 25.9741 16.682 26.818C17.5259 27.6619 18 28.8065 18 30V15C18 10.758 18 8.6355 16.6815 7.3185C15.3645 6 13.242 6 9 6H7.5C6.0855 6 5.379 6 4.9395 6.4395C4.5 6.879 4.5 7.5855 4.5 9V22.5C4.5 23.9145 4.5 24.621 4.9395 25.0605C5.379 25.5 6.0855 25.5 7.5 25.5Z" fill="#E1BE04" fill-opacity="0.44"/>
<path d="M28.5 25.5H24C22.8065 25.5 21.6619 25.9741 20.818 26.818C19.9741 27.6619 19.5 28.8065 19.5 30V15C19.5 10.758 19.5 8.6355 20.8185 7.3185C22.1355 6 24.258 6 28.5 6C29.9145 6 30.621 6 31.0605 6.4395C31.5 6.879 31.5 7.5855 31.5 9V22.5C31.5 23.9145 31.5 24.621 31.0605 25.0605C30.621 25.5 29.9145 25.5 28.5 25.5ZM7.5 6.225C7.5 6.16533 7.52371 6.1081 7.5659 6.0659C7.6081 6.02371 7.66533 6 7.725 6H11.775C11.8347 6 11.8919 6.02371 11.9341 6.0659C11.9763 6.1081 12 6.16533 12 6.225V12.594C12.0001 12.6683 11.9782 12.7409 11.937 12.8027C11.8958 12.8645 11.8372 12.9126 11.7686 12.9411C11.7 12.9695 11.6245 12.977 11.5517 12.9624C11.4788 12.9479 11.4119 12.9121 11.3595 12.8595L10.0155 11.5155C9.98067 11.4806 9.93928 11.4529 9.89373 11.434C9.84817 11.4151 9.79933 11.4053 9.75 11.4053C9.70068 11.4053 9.65183 11.4151 9.60628 11.434C9.56072 11.4529 9.51933 11.4806 9.4845 11.5155L8.1405 12.8595C8.08805 12.9121 8.02117 12.9479 7.94834 12.9624C7.87551 12.977 7.80001 12.9695 7.7314 12.9411C7.6628 12.9126 7.60418 12.8645 7.56299 12.8027C7.52179 12.7409 7.49987 12.6683 7.5 12.594V6.225Z" fill="white"/>
</svg>
