<svg width="190" height="190" viewBox="0 0 190 190" fill="none" xmlns="http://www.w3.org/2000/svg">
<rect x="14" y="14" width="160" height="160" rx="80" stroke="#C8A906" stroke-width="10"/>
<rect x="5" y="5" width="180" height="180" rx="90" stroke="#538E08" stroke-opacity="0.35" stroke-width="10"/>
<path d="M138.75 94C138.753 95.061 138.481 96.1047 137.96 97.0295C137.44 97.9542 136.689 98.7286 135.781 99.2773L79.5 133.707C78.5511 134.288 77.4643 134.605 76.3519 134.626C75.2394 134.646 74.1416 134.37 73.1719 133.824C72.2114 133.287 71.4112 132.504 70.8538 131.555C70.2963 130.606 70.0016 129.526 70 128.426V59.5742C70.0016 58.4738 70.2963 57.3936 70.8538 56.4448C71.4112 55.496 72.2114 54.7128 73.1719 54.1758C74.1416 53.6303 75.2394 53.3535 76.3519 53.3741C77.4643 53.3947 78.5511 53.7119 79.5 54.293L135.781 88.7227C136.689 89.2714 137.44 90.0458 137.96 90.9705C138.481 91.8953 138.753 92.939 138.75 94Z" fill="#C8A906"/>
</svg>
